<svg xmlns="http://www.w3.org/2000/svg" viewBox="0 0 64 64" role="img" aria-label="BarBae favicon">
  <defs>
    <linearGradient id="bg" x1="0" y1="0" x2="1" y2="1">
      <stop offset="0%" stop-color="#2f221a" />
      <stop offset="48%" stop-color="#5b4635" />
      <stop offset="52%" stop-color="#d8be8d" />
      <stop offset="100%" stop-color="#f0d9a9" />
    </linearGradient>
    <filter id="shadow" x="-20%" y="-20%" width="140%" height="140%">
      <feDropShadow dx="0" dy="1" stdDeviation="1.5" flood-color="#000000" flood-opacity="0.2" />
    </filter>
  </defs>

  <rect width="64" height="64" rx="14" fill="url(#bg)" />
  <rect x="31.5" y="0" width="1" height="64" fill="rgba(255,255,255,0.7)" />

  <g filter="url(#shadow)" fill="none" stroke-linecap="round" stroke-linejoin="round">
    <path d="M14 13v38" stroke="#ffffff" stroke-width="3.2" />
    <path d="M14 13h9c4.8 0 7.3 2.4 7.3 6.4 0 2.6-1.3 4.6-3.8 5.6 3 0.8 4.8 3.3 4.8 6.7 0 4.6-3.2 7.3-8.4 7.3H14" stroke="#ffffff" stroke-width="3.2" />

    <path d="M36 13v38" stroke="#f2dcac" stroke-width="3.2" />
    <path d="M36 13h9c4.8 0 7.3 2.4 7.3 6.4 0 2.6-1.3 4.6-3.8 5.6 3 0.8 4.8 3.3 4.8 6.7 0 4.6-3.2 7.3-8.4 7.3H36" stroke="#f2dcac" stroke-width="3.2" />
  </g>
</svg>
  